<?xml version="1.0" standalone="no"?>
<!DOCTYPE svg PUBLIC "-//W3C//DTD SVG 20010904//EN"
 "http://www.w3.org/TR/2001/REC-SVG-20010904/DTD/svg10.dtd">
<svg version="1.0" xmlns="http://www.w3.org/2000/svg"
 width="500.000000pt" height="500.000000pt" viewBox="0 0 500.000000 500.000000"
 preserveAspectRatio="xMidYMid meet">

<g transform="translate(0.000000,500.000000) scale(0.100000,-0.100000)"
fill="#000000" stroke="none">
<path d="M2766 3338 c-3 -7 -10 -31 -17 -53 -16 -55 -23 -62 -80 -75 -27 -7
-51 -16 -54 -21 -3 -5 1 -21 9 -36 12 -25 22 -29 87 -38 l73 -10 82 -105 c45
-58 83 -110 83 -116 1 -12 -131 -104 -149 -104 -6 0 -10 38 -10 95 0 91 -1 95
-22 96 -43 3 -89 1 -92 -2 -1 -2 -63 -184 -137 -404 -74 -220 -139 -398 -144
-395 -6 2 -77 184 -160 405 l-150 400 -35 0 -35 0 0 -499 c0 -391 3 -500 13
-503 9 -4 12 78 12 388 0 237 4 389 9 384 5 -6 73 -182 152 -393 110 -295 146
-382 158 -380 11 2 59 130 161 436 80 238 149 430 153 426 4 -4 7 -200 7 -436
l0 -428 55 0 55 0 0 344 c0 264 3 346 13 354 10 9 176 70 240 89 12 4 36 -12
75 -49 69 -67 108 -88 160 -88 47 0 62 14 62 57 0 52 -24 99 -86 163 -38 40
-55 65 -51 77 3 10 26 76 51 147 25 71 46 136 46 145 0 9 -8 26 -18 39 l-18
23 -88 -131 c-52 -78 -94 -130 -102 -128 -7 2 -61 39 -118 83 l-104 80 -9 69
c-7 65 -11 71 -40 89 -26 15 -34 16 -37 5z"/>
<path d="M2250 3299 c-188 -41 -318 -108 -444 -228 -89 -85 -138 -153 -187
-254 -206 -432 -30 -942 399 -1157 137 -68 214 -85 387 -85 125 0 163 4 226
22 85 25 209 81 209 94 0 14 -14 11 -92 -25 -155 -70 -365 -91 -533 -52 -88
20 -218 76 -290 126 -130 90 -243 229 -303 373 -45 107 -62 200 -62 337 0 96
5 134 25 206 71 246 222 431 440 539 133 66 224 87 375 88 84 0 147 -5 193
-16 77 -19 97 -21 97 -8 0 33 -333 63 -440 40z"/>
</g>
</svg>
